<?xml version="1.1" encoding="UTF-8" standalone="no"?>
<!DOCTYPE svg PUBLIC "-//W3C//DTD SVG 1.1//EN" "http://www.w3.org/Graphics/SVG/1.1/DTD/svg11.dtd">
<svg width="100%" height="100%" viewBox="0 0 1600 900" version="1.1" xmlns="http://www.w3.org/2000/svg" xmlns:xlink="http://www.w3.org/1999/xlink" xml:space="preserve" xmlns:serif="http://www.serif.com/" style="fill-rule:evenodd;clip-rule:evenodd;stroke-linejoin:round;stroke-miterlimit:2;">
    <path d="M1247,900L1233.7,885C1220.3,870 1193.7,840 1183,810C1172.3,780 1177.7,750 1209.7,720C1241.7,690 1300.3,660 1313.7,630C1327,600 1295,570 1249.7,540C1204.3,510 1145.7,480 1140.3,450C1135,420 1183,390 1204.3,360C1225.7,330 1220.3,300 1228.3,270C1236.3,240 1257.7,210 1265.7,180C1273.7,150 1268.3,120 1265.7,90C1263,60 1263,30 1263,15L1263,0L1600,0L1600,900L1247,900Z" style="fill:rgb(255,200,227);fill-rule:nonzero;"/>
    <path d="M1103,900L1073.7,885C1044.3,870 985.7,840 977.7,810C969.7,780 1012.3,750 1055,720C1097.7,690 1140.3,660 1140.3,630C1140.3,600 1097.7,570 1063,540C1028.3,510 1001.7,480 999,450C996.3,420 1017.7,390 1028.3,360C1039,330 1039,300 1055,270C1071,240 1103,210 1108.3,180C1113.7,150 1092.3,120 1095,90C1097.7,60 1124.3,30 1137.7,15L1151,0L1264,0L1264,15C1264,30 1264,60 1266.7,90C1269.3,120 1274.7,150 1266.7,180C1258.7,210 1237.3,240 1229.3,270C1221.3,300 1226.7,330 1205.3,360C1184,390 1136,420 1141.3,450C1146.7,480 1205.3,510 1250.7,540C1296,570 1328,600 1314.7,630C1301.3,660 1242.7,690 1210.7,720C1178.7,750 1173.3,780 1184,810C1194.7,840 1221.3,870 1234.7,885L1248,900L1103,900Z" style="fill:rgb(255,219,234);fill-rule:nonzero;"/>
    <path d="M991,900L967,885C943,870 895,840 887,810C879,780 911,750 948.3,720C985.7,690 1028.3,660 1031,630C1033.7,600 996.3,570 956.3,540C916.3,510 873.7,480 871,450C868.3,420 905.7,390 927,360C948.3,330 953.7,300 972.3,270C991,240 1023,210 1020.3,180C1017.7,150 980.3,120 972.3,90C964.3,60 985.7,30 996.3,15L1007,0L1152,0L1138.7,15C1125.3,30 1098.7,60 1096,90C1093.3,120 1114.7,150 1109.3,180C1104,210 1072,240 1056,270C1040,300 1040,330 1029.3,360C1018.7,390 997.3,420 1000,450C1002.7,480 1029.3,510 1064,540C1098.7,570 1141.3,600 1141.3,630C1141.3,660 1098.7,690 1056,720C1013.3,750 970.7,780 978.7,810C986.7,840 1045.3,870 1074.7,885L1104,900L991,900Z" style="fill:rgb(255,238,244);fill-rule:nonzero;"/>
    <path d="M895,900L865.7,885C836.3,870 777.7,840 764.3,810C751,780 783,750 817.7,720C852.3,690 889.7,660 895,630C900.3,600 873.7,570 841.7,540C809.7,510 772.3,480 764.3,450C756.3,420 777.7,390 796.3,360C815,330 831,300 852.3,270C873.7,240 900.3,210 900.3,180C900.3,150 873.7,120 868.3,90C863,60 879,30 887,15L895,0L1008,0L997.3,15C986.7,30 965.3,60 973.3,90C981.3,120 1018.7,150 1021.3,180C1024,210 992,240 973.3,270C954.7,300 949.3,330 928,360C906.7,390 869.3,420 872,450C874.7,480 917.3,510 957.3,540C997.3,570 1034.7,600 1032,630C1029.3,660 986.7,690 949.3,720C912,750 880,780 888,810C896,840 944,870 968,885L992,900L895,900Z" style="fill:white;fill-rule:nonzero;"/>
    <path d="M735,900L695,885C655,870 575,840 556.3,810C537.7,780 580.3,750 609.7,720C639,690 655,660 665.7,630C676.3,600 681.7,570 665.7,540C649.7,510 612.3,480 583,450C553.7,420 532.3,390 543,360C553.7,330 596.3,300 636.3,270C676.3,240 713.7,210 719,180C724.3,150 697.7,120 684.3,90C671,60 671,30 671,15L671,0L896,0L888,15C880,30 864,60 869.3,90C874.7,120 901.3,150 901.3,180C901.3,210 874.7,240 853.3,270C832,300 816,330 797.3,360C778.7,390 757.3,420 765.3,450C773.3,480 810.7,510 842.7,540C874.7,570 901.3,600 896,630C890.7,660 853.3,690 818.7,720C784,750 752,780 765.3,810C778.7,840 837.3,870 866.7,885L896,900L735,900Z" style="fill:white;fill-rule:nonzero;"/>
    <path d="M575,900L543,885C511,870 447,840 425.7,810C404.3,780 425.7,750 449.7,720C473.7,690 500.3,660 524.3,630C548.3,600 569.7,570 545.7,540C521.7,510 452.3,480 420.3,450C388.3,420 393.7,390 417.7,360C441.7,330 484.3,300 519,270C553.7,240 580.3,210 585.7,180C591,150 575,120 556.3,90C537.7,60 516.3,30 505.7,15L495,0L672,0L672,15C672,30 672,60 685.3,90C698.7,120 725.3,150 720,180C714.7,210 677.3,240 637.3,270C597.3,300 554.7,330 544,360C533.3,390 554.7,420 584,450C613.3,480 650.7,510 666.7,540C682.7,570 677.3,600 666.7,630C656,660 640,690 610.7,720C581.3,750 538.7,780 557.3,810C576,840 656,870 696,885L736,900L575,900Z" style="fill:rgb(255,238,244);fill-rule:nonzero;"/>
    <path d="M447,900L420.3,885C393.7,870 340.3,840 324.3,810C308.3,780 329.7,750 351,720C372.3,690 393.7,660 412.3,630C431,600 447,570 428.3,540C409.7,510 356.3,480 327,450C297.7,420 292.3,390 311,360C329.7,330 372.3,300 407,270C441.7,240 468.3,210 471,180C473.7,150 452.3,120 433.7,90C415,60 399,30 391,15L383,0L496,0L506.7,15C517.3,30 538.7,60 557.3,90C576,120 592,150 586.7,180C581.3,210 554.7,240 520,270C485.3,300 442.7,330 418.7,360C394.7,390 389.3,420 421.3,450C453.3,480 522.7,510 546.7,540C570.7,570 549.3,600 525.3,630C501.3,660 474.7,690 450.7,720C426.7,750 405.3,780 426.7,810C448,840 512,870 544,885L576,900L447,900Z" style="fill:rgb(255,219,234);fill-rule:nonzero;"/>
    <path d="M0,900L0,0L384,0L392,15C400,30 416,60 434.7,90C453.3,120 474.7,150 472,180C469.3,210 442.7,240 408,270C373.3,300 330.7,330 312,360C293.3,390 298.7,420 328,450C357.3,480 410.7,510 429.3,540C448,570 432,600 413.3,630C394.7,660 373.3,690 352,720C330.7,750 309.3,780 325.3,810C341.3,840 394.7,870 421.3,885L448,900L0,900Z" style="fill:rgb(255,200,227);fill-rule:nonzero;"/>
</svg>
