<svg id="visual" viewBox="0 0 900 600" width="900" height="600" xmlns="http://www.w3.org/2000/svg" xmlns:xlink="http://www.w3.org/1999/xlink" version="1.1"><path d="M0 374L21.5 377.5C43 381 86 388 128.8 388.5C171.7 389 214.3 383 257.2 375.2C300 367.3 343 357.7 385.8 366.2C428.7 374.7 471.3 401.3 514.2 406.5C557 411.7 600 395.3 642.8 392.7C685.7 390 728.3 401 771.2 408.3C814 415.7 857 419.3 878.5 421.2L900 423L900 601L878.5 601C857 601 814 601 771.2 601C728.3 601 685.7 601 642.8 601C600 601 557 601 514.2 601C471.3 601 428.7 601 385.8 601C343 601 300 601 257.2 601C214.3 601 171.7 601 128.8 601C86 601 43 601 21.5 601L0 601Z" fill="#f3b600"></path><path d="M0 399L21.5 398.2C43 397.3 86 395.7 128.8 392C171.7 388.3 214.3 382.7 257.2 382.7C300 382.7 343 388.3 385.8 396.5C428.7 404.7 471.3 415.3 514.2 412.8C557 410.3 600 394.7 642.8 394.5C685.7 394.3 728.3 409.7 771.2 413C814 416.3 857 407.7 878.5 403.3L900 399L900 601L878.5 601C857 601 814 601 771.2 601C728.3 601 685.7 601 642.8 601C600 601 557 601 514.2 601C471.3 601 428.7 601 385.8 601C343 601 300 601 257.2 601C214.3 601 171.7 601 128.8 601C86 601 43 601 21.5 601L0 601Z" fill="#fe9e08"></path><path d="M0 411L21.5 418.2C43 425.3 86 439.7 128.8 437.2C171.7 434.7 214.3 415.3 257.2 408.2C300 401 343 406 385.8 408.7C428.7 411.3 471.3 411.7 514.2 417.8C557 424 600 436 642.8 442.8C685.7 449.7 728.3 451.3 771.2 440.7C814 430 857 407 878.5 395.5L900 384L900 601L878.5 601C857 601 814 601 771.2 601C728.3 601 685.7 601 642.8 601C600 601 557 601 514.2 601C471.3 601 428.7 601 385.8 601C343 601 300 601 257.2 601C214.3 601 171.7 601 128.8 601C86 601 43 601 21.5 601L0 601Z" fill="#ff851f"></path><path d="M0 426L21.5 425.3C43 424.7 86 423.3 128.8 431C171.7 438.7 214.3 455.3 257.2 458.2C300 461 343 450 385.8 439.2C428.7 428.3 471.3 417.7 514.2 416C557 414.3 600 421.7 642.8 423C685.7 424.3 728.3 419.7 771.2 422.5C814 425.3 857 435.7 878.5 440.8L900 446L900 601L878.5 601C857 601 814 601 771.2 601C728.3 601 685.7 601 642.8 601C600 601 557 601 514.2 601C471.3 601 428.7 601 385.8 601C343 601 300 601 257.2 601C214.3 601 171.7 601 128.8 601C86 601 43 601 21.5 601L0 601Z" fill="#ff6932"></path><path d="M0 447L21.5 446.2C43 445.3 86 443.7 128.8 447.7C171.7 451.7 214.3 461.3 257.2 460.2C300 459 343 447 385.8 442.2C428.7 437.3 471.3 439.7 514.2 443.8C557 448 600 454 642.8 453.7C685.7 453.3 728.3 446.7 771.2 448.8C814 451 857 462 878.5 467.5L900 473L900 601L878.5 601C857 601 814 601 771.2 601C728.3 601 685.7 601 642.8 601C600 601 557 601 514.2 601C471.3 601 428.7 601 385.8 601C343 601 300 601 257.2 601C214.3 601 171.7 601 128.8 601C86 601 43 601 21.5 601L0 601Z" fill="#ff4b45"></path><path d="M0 461L21.5 462.5C43 464 86 467 128.8 464.8C171.7 462.7 214.3 455.3 257.2 456.3C300 457.3 343 466.7 385.8 471C428.7 475.3 471.3 474.7 514.2 470.8C557 467 600 460 642.8 461C685.7 462 728.3 471 771.2 476.7C814 482.3 857 484.7 878.5 485.8L900 487L900 601L878.5 601C857 601 814 601 771.2 601C728.3 601 685.7 601 642.8 601C600 601 557 601 514.2 601C471.3 601 428.7 601 385.8 601C343 601 300 601 257.2 601C214.3 601 171.7 601 128.8 601C86 601 43 601 21.5 601L0 601Z" fill="#ff2557"></path><path d="M0 514L21.5 513C43 512 86 510 128.8 507.8C171.7 505.7 214.3 503.3 257.2 501.2C300 499 343 497 385.8 493.7C428.7 490.3 471.3 485.7 514.2 485.5C557 485.3 600 489.7 642.8 492.3C685.7 495 728.3 496 771.2 494.5C814 493 857 489 878.5 487L900 485L900 601L878.5 601C857 601 814 601 771.2 601C728.3 601 685.7 601 642.8 601C600 601 557 601 514.2 601C471.3 601 428.7 601 385.8 601C343 601 300 601 257.2 601C214.3 601 171.7 601 128.8 601C86 601 43 601 21.5 601L0 601Z" fill="#ff006c"></path><path d="M0 487L21.5 489.2C43 491.3 86 495.7 128.8 501.8C171.7 508 214.3 516 257.2 514.7C300 513.3 343 502.7 385.8 500.5C428.7 498.3 471.3 504.7 514.2 504.8C557 505 600 499 642.8 495.7C685.7 492.3 728.3 491.7 771.2 493.2C814 494.7 857 498.3 878.5 500.2L900 502L900 601L878.5 601C857 601 814 601 771.2 601C728.3 601 685.7 601 642.8 601C600 601 557 601 514.2 601C471.3 601 428.7 601 385.8 601C343 601 300 601 257.2 601C214.3 601 171.7 601 128.8 601C86 601 43 601 21.5 601L0 601Z" fill="#ff0084"></path><path d="M0 513L21.5 517.5C43 522 86 531 128.8 533.2C171.7 535.3 214.3 530.7 257.2 531.2C300 531.7 343 537.3 385.8 535.7C428.7 534 471.3 525 514.2 523.7C557 522.3 600 528.7 642.8 527.3C685.7 526 728.3 517 771.2 517C814 517 857 526 878.5 530.5L900 535L900 601L878.5 601C857 601 814 601 771.2 601C728.3 601 685.7 601 642.8 601C600 601 557 601 514.2 601C471.3 601 428.7 601 385.8 601C343 601 300 601 257.2 601C214.3 601 171.7 601 128.8 601C86 601 43 601 21.5 601L0 601Z" fill="#fd009f"></path><path d="M0 532L21.5 531C43 530 86 528 128.8 532C171.7 536 214.3 546 257.2 549.2C300 552.3 343 548.7 385.8 547.3C428.7 546 471.3 547 514.2 545.3C557 543.7 600 539.3 642.8 539.8C685.7 540.3 728.3 545.7 771.2 546.5C814 547.3 857 543.7 878.5 541.8L900 540L900 601L878.5 601C857 601 814 601 771.2 601C728.3 601 685.7 601 642.8 601C600 601 557 601 514.2 601C471.3 601 428.7 601 385.8 601C343 601 300 601 257.2 601C214.3 601 171.7 601 128.8 601C86 601 43 601 21.5 601L0 601Z" fill="#f000be"></path><path d="M0 561L21.5 559.7C43 558.3 86 555.7 128.8 556C171.7 556.3 214.3 559.7 257.2 560.7C300 561.7 343 560.3 385.8 559.5C428.7 558.7 471.3 558.3 514.2 560.5C557 562.7 600 567.3 642.8 568.8C685.7 570.3 728.3 568.7 771.2 565C814 561.3 857 555.7 878.5 552.8L900 550L900 601L878.5 601C857 601 814 601 771.2 601C728.3 601 685.7 601 642.8 601C600 601 557 601 514.2 601C471.3 601 428.7 601 385.8 601C343 601 300 601 257.2 601C214.3 601 171.7 601 128.8 601C86 601 43 601 21.5 601L0 601Z" fill="#d800de"></path><path d="M0 572L21.5 571.5C43 571 86 570 128.8 572.5C171.7 575 214.3 581 257.2 581.5C300 582 343 577 385.8 576C428.7 575 471.3 578 514.2 578.5C557 579 600 577 642.8 576.5C685.7 576 728.3 577 771.2 576.2C814 575.3 857 572.7 878.5 571.3L900 570L900 601L878.5 601C857 601 814 601 771.2 601C728.3 601 685.7 601 642.8 601C600 601 557 601 514.2 601C471.3 601 428.7 601 385.8 601C343 601 300 601 257.2 601C214.3 601 171.7 601 128.8 601C86 601 43 601 21.5 601L0 601Z" fill="#b200ff"></path></svg>